<?xml version="1.0" encoding="UTF-8"?>
<svg xmlns="http://www.w3.org/2000/svg" viewBox="0 0 878 854" width="878" height="854">
  <rect width="878" height="854" rx="120" fill="#111111"/>
  <g transform="translate(70,784) scale(0.1,-0.1)" fill="white" stroke="none">
    <path d="M923 6272 l-103 -3 0 -2781 0 -2780 853 5 c799 5 858 7 957 26 413 79 744 276 984 586 113 145 188 288 245 465 58 180 75 288 75 470 0 190 -12 275 -60 450 -99 352 -327 666 -635 873 l-108 72 32 24 c70 52 245 241 300 324 175 262 253 581 219 893 -12 107 -71 325 -117 434 -66 157 -193 349 -317 481 -214 226 -559 401 -890 450 -67 10 -1175 18 -1435 11z m1522 -877 c98 -20 221 -85 300 -158 156 -142 224 -310 212 -521 -7 -115 -23 -173 -71 -260 -112 -200 -291 -319 -524 -347 -301 -37 -611 151 -708 429 -54 156 -54 288 0 443 72 207 273 373 511 423 48 9 216 4 280 -9z m41 -2361 c318 -66 539 -296 586 -611 19 -133 -20 -316 -95 -442 -44 -74 -159 -189 -234 -235 -145 -87 -332 -128 -485 -107 -333 47 -567 260 -633 576 -29 140 -7 293 65 441 134 278 482 443 796 378z"/>
    <path d="M3110 6269 c0 -4 12 -15 28 -24 508 -329 822 -934 798 -1540 -8 -208 -38 -356 -111 -551 -49 -129 -167 -332 -253 -433 l-30 -35 112 -110 c123 -122 239 -270 305 -389 115 -209 197 -456 224 -682 3 -22 4 -19 6 13 7 215 87 400 235 547 67 67 99 90 186 133 155 77 223 92 485 102 239 9 353 27 494 80 624 230 997 794 968 1461 -19 413 -163 750 -437 1018 -185 181 -392 302 -620 363 -193 51 -162 50 -1312 52 -593 1 -1078 -1 -1078 -5z m2302 -892 c224 -82 380 -255 428 -475 35 -158 20 -287 -50 -429 -63 -128 -174 -235 -317 -307 -130 -65 -342 -80 -485 -33 -117 38 -204 91 -288 176 -233 237 -253 591 -48 848 88 111 214 194 358 235 98 27 309 20 402 -15z"/>
  </g>
</svg>